CATALOG 0000000000000
FILE "Defcon 5 v1.000 (1995)(Data East)(NTSC)(US)(Track 1 of 3)[!].iso" BINARY
  TRACK 01 MODE1/2048
    INDEX 01 00:00:00
FILE "Defcon 5 v1.000 (1995)(Data East)(NTSC)(US)(Track 2 of 3)[!].wav" WAVE
  TRACK 02 AUDIO
    PREGAP 00:01:74
    INDEX 01 00:00:00
FILE "Defcon 5 v1.000 (1995)(Data East)(NTSC)(US)(Track 3 of 3)[!].wav" WAVE
  TRACK 03 AUDIO
    INDEX 00 00:00:00
    INDEX 01 00:02:00
